<?xml version="1.0" encoding="utf-8"?>
<!-- Generator: Adobe Illustrator 22.1.0, SVG Export Plug-In . SVG Version: 6.00 Build 0)  -->
<svg version="1.1" id="Layer_1" xmlns="http://www.w3.org/2000/svg" xmlns:xlink="http://www.w3.org/1999/xlink" x="0px" y="0px"
	 viewBox="0 0 512 512" style="enable-background:new 0 0 512 512;" xml:space="preserve">
<g>
	<title>airbnb</title>
	<g>
		<path d="M263.8,373.7c-25.4-31.8-40.2-59.7-45.2-83.5c-4.9-19.3-3-34.7,5.5-46.2c8.9-13.3,22.2-19.8,39.7-19.8s30.9,6.4,39.8,19.9
			c8.4,11.4,10.5,26.8,5.3,46.2c-5.5,24.3-20.4,52.2-45.2,83.5L263.8,373.7z M443.8,395.1c-3.4,23.4-19.3,42.7-41.3,52.2
			c-42.2,18.4-84-10.9-119.8-50.7c59.1-74.1,70.1-131.8,44.7-169.1c-14.9-21.4-36.3-31.8-63.7-31.8c-55.2,0-85.5,46.7-73.6,100.9
			c6.9,29.4,25.4,62.7,54.7,100c-18.4,20.3-35.8,34.8-51.2,43.7c-11.9,6.4-23.4,10.4-34.3,11.4c-50.2,7.5-89.6-41.2-71.7-91.4
			c2.5-6.5,7.5-18.4,15.9-36.8l0.4-1c27.5-59.6,60.8-127.3,99.1-202.4l1-2.5l10.8-20.9c8.5-15.5,11.9-22.4,25.4-30.9
			c6.5-3.9,14.4-5.9,23.4-5.9c17.9,0,31.8,10.4,37.8,18.8c2.9,4.5,6.4,10.5,10.9,17.9l10.5,20.4l1.5,2.9
			c38.3,75.1,71.7,142.7,99,202.4l0.4,0.5l10,22.9l5.9,14.4C444.2,371.6,445.3,383,443.8,395.1L443.8,395.1z M466.7,350.3
			c-3.4-11-9.5-23.9-16.9-39.3v-0.6c-35.4-75.1-68.3-142.7-99.5-203.3l-2.1-3C326,58.4,310.1,31,263.8,31c-45.7,0-65.1,31.8-85,73.1
			l-1.5,3c-31.3,60.6-64.1,128.2-99.4,203.3v1l-10.5,22.9c-3.9,9.5-5.9,14.4-6.4,15.9C35.5,419.9,87.8,481,150.9,481
			c0.5,0,2.5,0,4.9-0.4h7c32.8-4,66.6-24.9,100.9-62.2c34.3,37.3,68.2,58.2,101,62.2h7c2.5,0.4,4.5,0.4,5,0.4
			C439.9,481.1,492,419.9,466.7,350.3L466.7,350.3z"/>
	</g>
</g>
</svg>
